# xmcd
#
# Track frame offsets:
#	150
#	16025
#	33305
#	54455
#	75425
#	88745
#	123127
#	141127
#	153097
#	174607
#	187297
#	215195
#
# Disc length: 3069 seconds
# Revision: 0
# Processed by: cddbd v1.5.2PL0 Copyright (c) Steve Scherf et al.
# Submitted via: dBpowerAMP V12.0
#
DISCID=990bfb0c
DTITLE=Mary Lane - Appointment withTe Blues
DYEAR=1900
DGENRE=Blues
TTITLE0=Love Me Baby
TTITLE1=Leave Me Alone
TTITLE2=I Always Want You Near
TTITLE3=strong Love
TTITLE4=You Don't Want my Lovin' No More
TTITLE5=My Friends Always Ask Me
TTITLE6=Baby
TTITLE7=Hurt my Feelings
TTITLE8=Make Love to me One More Time
TTITLE9=Ride in Your Automobile
TTITLE10=Candy Yams
TTITLE11=Three-Six-Nine Blues
EXTD=
EXTT0=
EXTT1=
EXTT2=
EXTT3=
EXTT4=
EXTT5=
EXTT6=
EXTT7=
EXTT8=
EXTT9=
EXTT10=
EXTT11=
PLAYORDER=
